<svg width="617" height="445" viewBox="0 0 617 445" fill="none" xmlns="http://www.w3.org/2000/svg">
<g clip-path="url(#clip0_1158_155174)">
<path opacity="0.1" d="M358.609 78.4792C319.04 77.1033 281.325 64.3219 245.365 50.3408C209.405 36.3598 173.764 20.8663 135.122 13.4579C110.277 8.68763 81.8638 8.01672 61.8495 21.3439C42.5854 34.1651 36.3629 56.2994 33.0158 76.836C30.4984 92.2897 29.0379 108.551 35.9196 123.021C40.7101 133.062 49.2113 141.505 55.0929 151.125C75.5504 184.596 61.0881 225.874 38.9144 258.584C28.5151 273.935 16.4509 288.542 8.42698 304.865C0.403091 321.189 -3.31336 339.889 3.71039 356.537C10.6716 373.025 27.2536 385.431 45.2221 394.147C81.716 411.835 124.717 416.896 166.649 419.795C259.469 426.146 352.79 423.394 445.854 420.643C480.297 419.619 514.893 418.59 548.773 413.251C567.588 410.289 587.017 405.593 600.678 394.255C618.016 379.859 622.317 355.491 610.696 337.439C591.205 307.168 537.316 299.646 523.689 267.158C516.194 249.277 523.894 229.354 534.793 212.769C558.166 177.194 597.354 145.979 599.416 105.31C600.837 77.3762 581.999 49.4084 552.87 36.1892C522.343 22.3219 480.007 24.073 457.487 46.992C434.296 70.6045 393.54 79.6902 358.609 78.4792Z" fill="#6C63FF"/>
<path d="M137.662 412.234C137.662 412.234 106.408 388.593 100.504 358.521C98.1093 345.891 91.6869 334.379 82.1998 325.709C77.6614 321.631 72.7596 317.977 67.5557 314.793" stroke="#535461" stroke-width="2" stroke-miterlimit="10"/>
<path d="M63.7305 295.848C66.4695 299.555 67.7083 315.265 67.7083 315.265C67.7083 315.265 53.0642 309.494 50.3195 305.793C49.0015 304.013 48.4439 301.783 48.7695 299.592C49.0951 297.402 50.2771 295.43 52.0555 294.111C53.8339 292.793 56.0631 292.235 58.2525 292.561C60.442 292.886 62.4125 294.069 63.7305 295.848Z" fill="#6C63FF"/>
<path d="M89.9964 308.175C90.2806 312.774 82.7965 326.636 82.7965 326.636C82.7965 326.636 73.6304 313.821 73.3406 309.221C73.2304 307.028 73.9882 304.88 75.4498 303.242C76.9115 301.605 78.9592 300.609 81.1494 300.472C83.3395 300.334 85.4956 301.065 87.1506 302.507C88.8055 303.949 89.8259 305.985 89.9908 308.175H89.9964Z" fill="#6C63FF"/>
<path d="M115.454 343.608C113.386 347.724 99.9238 355.912 99.9238 355.912C99.9238 355.912 98.4861 340.219 100.555 336.103C101.573 334.167 103.31 332.709 105.392 332.041C107.474 331.374 109.735 331.551 111.688 332.535C113.641 333.519 115.13 335.23 115.834 337.301C116.539 339.372 116.402 341.637 115.454 343.608Z" fill="#6C63FF"/>
<path d="M128.689 374.742C127.342 379.148 115.46 389.491 115.46 389.491C115.46 389.491 111.385 374.27 112.732 369.858C113.379 367.741 114.841 365.968 116.795 364.929C118.749 363.89 121.035 363.67 123.151 364.317C125.267 364.965 127.039 366.427 128.078 368.382C129.116 370.337 129.336 372.625 128.689 374.742Z" fill="#6C63FF"/>
<path d="M69.2482 337.78C73.7943 338.394 88.1657 331.901 88.1657 331.901C88.1657 331.901 76.039 321.849 71.4701 321.235C69.2773 320.94 67.0572 321.529 65.2982 322.872C63.5393 324.214 62.3856 326.202 62.0909 328.396C61.7963 330.59 62.3848 332.811 63.7271 334.571C65.0693 336.331 67.0554 337.485 69.2482 337.78Z" fill="#6C63FF"/>
<path d="M85.1889 374.003C89.735 373.224 101.481 362.734 101.481 362.734C101.481 362.734 86.8993 356.776 82.3589 357.555C81.2718 357.733 80.2308 358.125 79.2959 358.708C78.361 359.291 77.5508 360.053 76.912 360.951C76.2732 361.849 75.8185 362.865 75.5741 363.939C75.3297 365.014 75.3005 366.127 75.4881 367.213C75.6757 368.299 76.0764 369.337 76.6672 370.267C77.2579 371.197 78.027 372.001 78.9299 372.633C79.8329 373.264 80.8519 373.71 81.9281 373.945C83.0043 374.181 84.1164 374.2 85.2002 374.003H85.1889Z" fill="#6C63FF"/>
<path d="M105.504 407.088C110.113 407.088 123.467 398.735 123.467 398.735C123.467 398.735 110.107 390.395 105.498 390.395C103.286 390.395 101.164 391.274 99.5996 392.839C98.0351 394.404 97.1562 396.527 97.1562 398.741C97.1562 400.955 98.0351 403.078 99.5996 404.643C101.164 406.208 103.286 407.088 105.498 407.088H105.504Z" fill="#6C63FF"/>
<path d="M441.286 207.76C441.286 207.76 460.55 173.618 489.589 163.782C501.782 159.73 512.334 151.832 519.661 141.272C523.098 136.224 526.063 130.87 528.52 125.278" stroke="#535461" stroke-width="2" stroke-miterlimit="10"/>
<path d="M546.749 119.023C543.442 122.23 528.048 125.551 528.048 125.551C528.048 125.551 531.827 110.256 535.134 107.044C536.731 105.548 538.85 104.74 541.036 104.792C543.222 104.845 545.3 105.754 546.823 107.325C548.346 108.895 549.191 111.001 549.178 113.189C549.164 115.377 548.292 117.472 546.749 119.023Z" fill="#6C63FF"/>
<path d="M538.044 146.673C533.498 147.571 518.797 141.988 518.797 141.988C518.797 141.988 530.276 131.185 534.793 130.304C535.878 130.063 537 130.041 538.093 130.24C539.187 130.439 540.229 130.854 541.16 131.462C542.09 132.069 542.89 132.857 543.512 133.778C544.134 134.699 544.567 135.735 544.783 136.826C545 137.916 544.996 139.039 544.773 140.128C544.55 141.217 544.112 142.25 543.484 143.168C542.856 144.085 542.052 144.867 541.117 145.469C540.183 146.071 539.138 146.48 538.044 146.673Z" fill="#6C63FF"/>
<path d="M506.358 176.625C502.005 175.118 492.111 162.86 492.111 162.86C492.111 162.86 507.454 159.346 511.819 160.853C512.867 161.201 513.836 161.754 514.67 162.48C515.503 163.206 516.184 164.09 516.673 165.081C517.162 166.072 517.449 167.151 517.518 168.254C517.587 169.357 517.436 170.463 517.075 171.507C516.713 172.552 516.148 173.514 515.411 174.338C514.675 175.162 513.782 175.832 512.785 176.308C511.788 176.784 510.707 177.057 509.603 177.112C508.5 177.166 507.397 177.001 506.358 176.625Z" fill="#6C63FF"/>
<path d="M477.24 193.887C472.694 193.136 460.896 182.703 460.896 182.703C460.896 182.703 475.438 176.642 479.979 177.392C482.164 177.752 484.117 178.966 485.408 180.766C486.699 182.566 487.223 184.806 486.863 186.993C486.504 189.179 485.291 191.133 483.492 192.425C481.692 193.717 479.454 194.241 477.268 193.881L477.24 193.887Z" fill="#6C63FF"/>
<path d="M505.96 130.031C505.954 134.642 514.313 148.02 514.313 148.02C514.313 148.02 522.661 134.659 522.661 130.054C522.69 128.94 522.496 127.831 522.09 126.793C521.684 125.756 521.074 124.81 520.297 124.011C519.52 123.213 518.591 122.579 517.565 122.146C516.538 121.712 515.436 121.489 514.322 121.489C513.208 121.489 512.106 121.712 511.079 122.146C510.053 122.579 509.124 123.213 508.347 124.011C507.57 124.81 506.96 125.756 506.554 126.793C506.148 127.831 505.954 128.94 505.983 130.054L505.96 130.031Z" fill="#6C63FF"/>
<path d="M472.187 150.647C473.563 155.048 485.519 165.311 485.519 165.311C485.519 165.311 489.497 150.062 488.11 145.661C487.391 143.622 485.909 141.942 483.977 140.974C482.045 140.007 479.812 139.827 477.75 140.473C475.688 141.12 473.957 142.541 472.921 144.439C471.886 146.337 471.627 148.562 472.199 150.647H472.187Z" fill="#6C63FF"/>
<path d="M442.143 175.192C442.757 179.741 452.804 191.891 452.804 191.891C452.804 191.891 459.288 177.535 458.674 172.969C458.552 171.863 458.211 170.792 457.669 169.82C457.128 168.848 456.398 167.994 455.522 167.308C454.645 166.623 453.641 166.119 452.568 165.828C451.494 165.536 450.373 165.462 449.271 165.611C448.169 165.759 447.107 166.126 446.148 166.691C445.19 167.256 444.354 168.007 443.69 168.899C443.026 169.792 442.547 170.809 442.281 171.889C442.016 172.97 441.969 174.093 442.143 175.192Z" fill="#6C63FF"/>
<path opacity="0.25" d="M546.749 119.023C543.442 122.23 528.048 125.551 528.048 125.551C528.048 125.551 531.827 110.256 535.134 107.044C536.731 105.548 538.85 104.74 541.036 104.792C543.222 104.845 545.3 105.754 546.823 107.325C548.346 108.895 549.191 111.001 549.178 113.189C549.164 115.377 548.292 117.472 546.749 119.023Z" fill="black"/>
<path opacity="0.25" d="M538.044 146.673C533.498 147.571 518.797 141.988 518.797 141.988C518.797 141.988 530.276 131.185 534.793 130.304C535.878 130.063 537 130.041 538.093 130.24C539.187 130.439 540.229 130.854 541.16 131.462C542.09 132.069 542.89 132.857 543.512 133.778C544.134 134.699 544.567 135.735 544.783 136.826C545 137.916 544.996 139.039 544.773 140.128C544.55 141.217 544.112 142.25 543.484 143.168C542.856 144.085 542.052 144.867 541.117 145.469C540.183 146.071 539.138 146.48 538.044 146.673Z" fill="black"/>
<path opacity="0.25" d="M506.358 176.625C502.005 175.118 492.111 162.86 492.111 162.86C492.111 162.86 507.454 159.346 511.819 160.853C512.867 161.201 513.836 161.754 514.67 162.48C515.503 163.206 516.184 164.09 516.673 165.081C517.162 166.072 517.449 167.151 517.518 168.254C517.587 169.357 517.436 170.463 517.075 171.507C516.713 172.552 516.148 173.514 515.411 174.338C514.675 175.162 513.782 175.832 512.785 176.308C511.788 176.784 510.707 177.057 509.603 177.112C508.5 177.166 507.397 177.001 506.358 176.625Z" fill="black"/>
<path opacity="0.25" d="M477.24 193.887C472.694 193.136 460.896 182.703 460.896 182.703C460.896 182.703 475.438 176.642 479.979 177.392C482.164 177.752 484.117 178.966 485.408 180.766C486.699 182.566 487.223 184.806 486.863 186.993C486.504 189.179 485.291 191.133 483.492 192.425C481.692 193.717 479.454 194.241 477.268 193.881L477.24 193.887Z" fill="black"/>
<path opacity="0.25" d="M505.96 130.031C505.954 134.642 514.313 148.02 514.313 148.02C514.313 148.02 522.661 134.659 522.661 130.054C522.69 128.94 522.496 127.831 522.09 126.793C521.684 125.756 521.074 124.81 520.297 124.011C519.52 123.213 518.591 122.579 517.565 122.146C516.538 121.712 515.436 121.489 514.322 121.489C513.208 121.489 512.106 121.712 511.079 122.146C510.053 122.579 509.124 123.213 508.347 124.011C507.57 124.81 506.96 125.756 506.554 126.793C506.148 127.831 505.954 128.94 505.983 130.054L505.96 130.031Z" fill="black"/>
<path opacity="0.25" d="M472.187 150.647C473.563 155.048 485.519 165.311 485.519 165.311C485.519 165.311 489.497 150.062 488.11 145.661C487.391 143.622 485.909 141.942 483.977 140.974C482.045 140.007 479.812 139.827 477.75 140.473C475.688 141.12 473.957 142.541 472.921 144.439C471.886 146.337 471.627 148.562 472.199 150.647H472.187Z" fill="black"/>
<path opacity="0.25" d="M442.143 175.192C442.757 179.741 452.804 191.891 452.804 191.891C452.804 191.891 459.288 177.535 458.674 172.969C458.552 171.863 458.211 170.792 457.669 169.82C457.128 168.848 456.398 167.994 455.522 167.308C454.645 166.623 453.641 166.119 452.568 165.828C451.494 165.536 450.373 165.462 449.271 165.611C448.169 165.759 447.107 166.126 446.148 166.691C445.19 167.256 444.354 168.007 443.69 168.899C443.026 169.792 442.547 170.809 442.281 171.889C442.016 172.97 441.969 174.093 442.143 175.192Z" fill="black"/>
<path d="M442.394 207.083C442.394 207.083 446.178 168.057 468.716 147.304C478.221 138.655 484.67 127.157 487.093 114.532C488.196 108.53 488.746 102.44 488.736 96.3379" stroke="#535461" stroke-width="2" stroke-miterlimit="10"/>
<path d="M502.863 83.1698C501.158 87.4454 488.406 96.7244 488.406 96.7244C488.406 96.7244 485.667 81.2082 487.389 76.9326C488.218 74.8796 489.828 73.2401 491.865 72.3748C493.902 71.5095 496.199 71.4893 498.251 72.3187C500.303 73.1481 501.942 74.759 502.807 76.7972C503.671 78.8354 503.691 81.1338 502.863 83.1869V83.1698Z" fill="#6C63FF"/>
<path d="M506.108 112.008C502.34 114.657 486.616 115.527 486.616 115.527C486.616 115.527 492.742 101.006 496.51 98.3566C497.403 97.6876 498.422 97.2047 499.505 96.9366C500.589 96.6684 501.715 96.6206 502.817 96.7957C503.919 96.9709 504.975 97.3656 505.922 97.9564C506.869 98.5472 507.688 99.3222 508.33 100.235C508.973 101.149 509.425 102.181 509.661 103.273C509.898 104.364 509.912 105.492 509.705 106.589C509.498 107.686 509.073 108.731 508.455 109.66C507.837 110.59 507.039 111.387 506.108 112.002V112.008Z" fill="#6C63FF"/>
<path d="M489.252 152.251C484.661 152.638 470.647 145.428 470.647 145.428C470.647 145.428 483.263 135.99 487.855 135.604C490.059 135.418 492.248 136.117 493.938 137.545C495.628 138.974 496.682 141.016 496.867 143.222C497.053 145.428 496.354 147.618 494.926 149.309C493.498 151 491.457 152.054 489.252 152.24V152.251Z" fill="#6C63FF"/>
<path d="M469.642 179.82C465.181 180.958 450.156 176.256 450.156 176.256C450.156 176.256 460.993 164.822 465.454 163.662C467.596 163.106 469.87 163.424 471.777 164.547C473.684 165.669 475.068 167.503 475.623 169.646C476.178 171.789 475.86 174.064 474.739 175.973C473.617 177.881 471.784 179.265 469.642 179.82Z" fill="#6C63FF"/>
<path d="M470.04 109.801C471.904 114.014 484.94 122.878 484.94 122.878C484.94 122.878 487.156 107.277 485.292 103.064C484.363 101.093 482.701 99.5631 480.66 98.802C478.619 98.0409 476.362 98.1086 474.37 98.9906C472.378 99.8726 470.81 101.499 470.001 103.522C469.192 105.546 469.206 107.805 470.04 109.818V109.801Z" fill="#6C63FF"/>
<path d="M447.514 142.335C450.554 145.797 465.636 150.334 465.636 150.334C465.636 150.334 463.09 134.784 460.049 131.321C459.332 130.48 458.454 129.79 457.468 129.291C456.481 128.792 455.406 128.494 454.303 128.415C453.201 128.336 452.093 128.476 451.046 128.829C449.998 129.181 449.031 129.739 448.2 130.468C447.37 131.198 446.692 132.085 446.207 133.079C445.723 134.073 445.44 135.154 445.376 136.258C445.312 137.362 445.468 138.468 445.835 139.511C446.202 140.554 446.773 141.514 447.514 142.335Z" fill="#6C63FF"/>
<path d="M429.96 176.972C432.37 180.895 446.469 187.917 446.469 187.917C446.469 187.917 446.588 172.162 444.195 168.233C443.005 166.419 441.154 165.14 439.037 164.668C436.92 164.197 434.702 164.568 432.854 165.705C431.006 166.842 429.673 168.654 429.138 170.757C428.604 172.861 428.909 175.09 429.989 176.972H429.96Z" fill="#6C63FF"/>
<path d="M413.412 54.2471C414.355 50.7846 415.492 47.3049 416.288 43.7969C415.333 47.3049 414.191 50.7959 413.412 54.2471Z" fill="url(#paint0_linear_1158_155174)"/>
<path d="M409.185 87.5994C409.105 87.463 409.048 87.3265 408.986 87.2014C408.986 87.1446 408.929 87.0991 408.906 87.0423C408.782 87.1007 408.655 87.152 408.525 87.1958C408.275 87.2924 408.02 87.3834 407.758 87.4573C407.497 87.5312 407.389 87.571 407.19 87.6165C407.025 87.6733 406.856 87.7171 406.684 87.7473L406.73 87.8496C406.94 87.8041 407.145 87.7643 407.355 87.7075L407.412 88.4125C407.65 88.4125 407.872 88.3784 408.088 88.3784C408.19 88.3728 408.292 88.3728 408.395 88.3784C408.838 88.3784 409.224 88.3784 409.531 88.3784C409.412 88.1225 409.287 87.8553 409.185 87.5994ZM524.542 271.32C521.871 267.721 516.541 229.093 516.541 229.093C516.541 229.093 506.057 201.625 508.915 190.663C511.773 179.702 501.107 151.654 501.107 151.654C501.107 151.654 494.061 148.59 493.68 144.041C493.68 144.041 464.909 134.944 463.562 128.121C462.471 122.526 444.627 118.512 438.217 117.244C436.262 109.353 434.296 101.99 432.847 97.9701C432.455 96.7193 432.086 95.639 431.745 94.7861C429.295 88.5319 421.726 87.9633 416.237 88.4637C415.999 87.3977 415.557 86.3879 414.935 85.4901C414.845 85.1814 414.665 84.9064 414.418 84.6998C414.3 84.5993 414.175 84.508 414.043 84.4268C413.944 84.2426 413.813 84.0771 413.657 83.9379C413.501 83.7973 413.329 83.6752 413.145 83.574C413.013 83.5025 412.877 83.4398 412.736 83.3864C412.407 83.2609 412.066 83.1676 411.719 83.1078C411.314 83.0245 410.904 82.9713 410.492 82.9486C411.495 82.5096 412.389 81.8555 413.111 81.0325C413.603 80.4547 413.968 79.7809 414.185 79.0539C414.365 78.4493 414.446 77.8195 414.424 77.189C414.277 77.4488 414.105 77.6943 413.913 77.9224C414.151 75.4037 412.821 72.8451 412.06 70.3378C411.137 67.0735 410.966 63.6425 411.56 60.3026C412.321 55.2651 414.208 50.1707 415.487 45.0422C415.49 45.0139 415.49 44.9853 415.487 44.957C416.157 42.41 416.572 39.8026 416.725 37.1733C416.947 31.8686 415.589 26.5752 413.407 21.7424C411.469 17.4611 408.611 13.248 404.235 11.5082C400.984 10.1948 397.342 10.4052 393.841 10.1891C385.988 9.70015 378.498 6.93691 371.031 4.42385C363.564 1.91079 355.881 -0.374851 348.022 0.0629448C340.163 0.500741 332.077 4.29308 328.491 11.2523C327.355 13.4243 326.701 15.8407 325.343 17.8818C322.797 21.731 318.24 23.6585 314.438 26.3137C310.636 28.9689 307.289 32.7385 305.914 37.2358C305.163 39.6588 305.057 42.236 305.607 44.7125C305.731 45.2717 305.89 45.8225 306.084 46.3613C306.624 47.8636 307.465 49.2394 308.556 50.4038C309.379 51.2644 310.325 51.9983 311.364 52.5814C312.667 53.3045 314.063 53.8476 315.512 54.1962C315.461 54.3667 315.41 54.5487 315.353 54.7249C315.262 55.0149 315.182 55.2935 315.097 55.6062C314.91 56.3055 314.733 57.0163 314.586 57.7326C314.58 57.7836 314.58 57.8352 314.586 57.8862C313.888 61.1201 313.537 64.4195 313.54 67.728C313.539 69.2928 313.619 70.8565 313.779 72.413C316.052 95.4855 335.089 113.685 358.609 114.868C359.416 114.908 360.229 114.93 361.053 114.93C361.428 114.93 361.797 114.93 362.189 114.93C362.558 115.419 362.922 115.92 363.269 116.409C363.615 116.898 363.934 117.398 364.235 117.887L363.411 117.034L362.587 116.278C362.363 116.585 362.114 116.872 361.842 117.136C361.305 116.947 360.757 116.792 360.2 116.67C357.842 116.147 354.25 115.954 349.523 117.381C345.175 118.683 339.862 121.361 333.645 126.45L303.351 144.644L286.962 154.616L281.058 169.058C281.058 169.058 276.62 186.217 271.682 205.878C271.488 205.935 271.301 205.992 271.113 206.06C270.713 206.015 270.311 205.992 269.909 205.992C267.044 205.985 264.287 207.09 262.219 209.073C260.15 211.057 258.931 213.766 258.816 216.63C248.997 228.57 248.44 240.51 250.747 245.991C250.956 246.504 251.219 246.994 251.531 247.452C253.043 249.635 255.867 255.264 258.731 261.262C258.657 261.757 258.612 262.172 258.589 262.485C258.584 262.587 258.584 262.69 258.589 262.792C258.589 262.792 260.294 288.554 254.611 295.939C253.366 297.548 253.554 299.663 254.611 302.006C258.418 310.432 273.472 321.684 273.472 321.684C273.472 321.684 291.525 321.587 301.584 320.49C301.555 321.502 301.533 322.508 301.51 323.492C301.283 333.431 301.283 341.76 301.283 341.76L300.908 352.182C300.908 352.182 297.498 374.146 295.793 380.201C294.719 383.999 295.958 419.165 297.038 445.017H474.916C477.007 429.723 474.058 383.254 474.058 383.254C474.058 383.254 471.256 371.24 471.154 360.767C471.148 360.756 471.145 360.743 471.145 360.73C471.145 360.717 471.148 360.705 471.154 360.693C471.154 359.778 471.154 358.885 471.188 358.01L472.478 357.964L474.796 357.885H475.007C475.007 357.885 475.063 357.669 475.194 357.316C475.501 356.438 475.919 355.603 476.439 354.831C477.427 353.37 478.973 351.937 481.297 351.841C482.582 351.79 484.57 350.749 486.815 349.214C486.83 349.217 486.846 349.217 486.861 349.214C492.901 345.126 500.885 337.581 502.823 336.342C505.488 334.636 518.252 323.265 518.252 323.265C518.252 323.265 520.155 320.854 522.184 317.948L522.258 317.846C524.781 314.207 527.463 309.858 526.804 308.488C525.667 306.031 527.565 300.158 527.565 300.158C533.492 289.304 527.213 274.919 524.542 271.32ZM414.657 96.4407C414.711 96.6104 414.746 96.786 414.759 96.9637C414.617 96.7761 414.475 96.5771 414.333 96.3952L414.197 96.2132L414.1 96.0768L414.316 95.7811C414.316 95.7811 414.316 95.7811 414.316 95.8209C414.466 96.0053 414.582 96.2152 414.657 96.4407ZM412.748 91.4032C412.128 91.5282 411.639 91.642 411.321 91.7272C410.918 91.0108 410.531 90.2945 410.185 89.5667C411.096 90.0955 411.954 90.7105 412.748 91.4032ZM411.679 92.3015C411.678 92.2902 411.678 92.2787 411.679 92.2674L411.725 92.3015C411.958 92.455 412.185 92.6028 412.395 92.7563C412.583 92.8928 412.753 93.0236 412.924 93.16C412.81 93.359 412.685 93.5637 412.56 93.7286C412.361 93.4159 412.174 93.1145 411.992 92.8018C411.878 92.6768 411.776 92.5062 411.679 92.3015ZM408.27 85.2854C409.368 85.177 410.473 85.177 411.571 85.2854C411.725 85.2854 411.861 85.3138 411.997 85.3366C412.306 85.3842 412.608 85.4623 412.901 85.5697C413.573 86.5097 413.986 87.6095 414.1 88.7593L413.793 88.8048L413.492 88.8617C412.924 88.9583 412.355 89.055 411.912 89.1459L411.344 89.2654C410.588 89.4302 410.151 89.5553 410.134 89.561C410.06 89.4075 409.986 89.2653 409.906 89.1175C409.781 88.873 409.651 88.6229 409.537 88.3784C409.423 88.1339 409.275 87.8553 409.156 87.5994C409.077 87.463 409.02 87.3265 408.957 87.2014C408.957 87.1446 408.9 87.0991 408.878 87.0423C408.845 86.9819 408.816 86.9192 408.792 86.8546C408.446 86.1496 408.128 85.4446 407.821 84.7509C407.787 84.6827 407.758 84.6088 407.73 84.5406L408.162 84.5121V84.66L408.27 85.2854ZM272.687 437.99C272.642 429.524 272.028 420.364 270.324 411.768C269.596 408.112 268.846 404.456 268.085 400.863C267.891 399.964 267.704 399.077 267.516 398.19L265.766 398.423H265.607C260.833 375.902 255.844 356.06 255.844 356.06C255.844 356.06 245.934 318.199 247.081 315.18C247.229 314.787 247.042 313.73 246.621 312.178C244.223 303.569 234.21 279.849 230.71 271.741C230.71 271.707 230.681 271.667 230.67 271.639C230.102 270.28 229.693 269.364 229.568 269.097L230.392 256.998L230.437 256.27L230.545 254.724L230.5 254.684L230.545 253.968C230.545 253.968 221.896 246.872 207.246 241.749C206.678 241.545 206.076 241.346 205.479 241.152C206.212 236.257 207.184 230.73 208.451 225.346C208.57 224.806 208.701 224.283 208.837 223.754C208.957 223.225 209.093 222.714 209.229 222.196C209.445 221.355 209.678 220.525 209.917 219.706C210.707 219.456 211.485 219.177 212.253 218.881L212.548 218.768C221.999 215.088 229.797 208.107 234.499 199.117C239.2 190.127 240.487 179.737 238.12 169.871C236.77 164.275 234.278 159.02 230.801 154.434C230.539 154.082 230.261 153.729 229.982 153.383C229.704 153.036 229.369 152.649 229.056 152.297C230.698 148.561 232.636 145.008 232.795 141.374C232.824 140.914 232.824 140.453 232.795 139.993V139.936C232.585 137.599 231.551 135.234 229.141 132.749C225.624 129.105 220.617 127.257 215.611 126.37C210.605 125.483 205.502 125.46 200.467 124.863C192.119 123.863 183.987 121.287 175.639 120.497C165.357 119.544 155.005 121.309 145.618 125.614C139.407 128.457 133.116 133.426 132.741 140.243C132.434 145.878 136.355 151.279 135.366 156.845C134.383 162.315 128.814 166.619 129.303 172.151C129.491 174.312 130.599 176.245 131.985 177.967C132.463 178.536 132.968 179.105 133.491 179.673C135.514 181.817 137.742 183.875 138.873 186.576C138.918 186.689 138.964 186.803 139.003 186.917C139.964 189.583 139.532 192.955 137.156 194.484C137.17 194.494 137.179 194.508 137.185 194.524C137.219 194.57 137.253 194.604 137.281 194.649C137.285 194.64 137.285 194.63 137.281 194.621C138.124 195.62 139.259 196.328 140.526 196.645L141.009 196.793C140.617 197.219 140.248 197.663 139.873 198.129L139.628 198.453C139.002 199.295 138.433 200.179 137.924 201.097C137.634 201.608 137.355 202.12 137.122 202.632C136.343 204.192 135.779 205.85 135.446 207.561C134.838 211.325 135.696 215.248 134.775 218.933C133.639 223.481 130.042 226.972 128.013 231.197C124.172 239.157 126.348 248.498 127.121 257.288C128.172 269.228 126.467 281.219 124.768 293.079C123.867 299.387 122.965 305.7 122.063 312.018C119.79 327.878 117.517 343.737 115.244 359.596C114.414 365.407 113.431 371.536 109.562 376.022H109.601C109.601 376.022 109.601 376.056 109.562 376.067C110.723 376.575 111.959 376.894 113.221 377.011C118.273 377.517 123.626 375.072 128.172 372.4C131.772 370.319 135.182 367.923 138.361 365.242C137.895 366.948 137.395 368.807 136.861 370.808C136.863 370.827 136.863 370.846 136.861 370.865C130.445 395.313 120.126 440.133 120.126 440.133C120.126 440.133 119.188 442.084 117.972 444.989H278.222C276.347 442.715 274.603 440.537 273.239 438.78L272.687 437.99ZM154.034 211.928C154.074 211.86 154.102 211.797 154.142 211.735C154.142 211.917 154.142 212.093 154.142 212.263C154.142 212.434 154.142 212.587 154.142 212.747C154.142 212.906 154.142 212.889 154.142 212.968C154.142 213.201 154.091 213.435 154.051 213.668C154.051 213.668 154.051 213.696 154.051 213.719L154.619 213.929L155.278 214.202C159.173 215.741 163.117 217.134 167.11 218.381C167.519 218.512 167.934 218.637 168.348 218.756L168.434 219.461C168.536 220.183 168.633 220.917 168.724 221.65C168.724 221.65 168.724 221.684 168.724 221.707C168.979 223.737 169.229 225.761 169.451 227.74C169.451 227.74 159.018 223.76 159.148 229.804C159.142 229.912 159.142 230.02 159.148 230.128C159.137 230.271 159.137 230.416 159.148 230.56C159.245 235.268 160.717 238.059 161.012 239.492C160.994 239.551 160.963 239.606 160.921 239.651C160.669 240.2 160.582 240.811 160.671 241.408C160.661 242.425 160.741 243.441 160.91 244.444C160.603 244.632 160.302 244.819 160.001 245.013C159.773 245.155 159.557 245.314 159.336 245.473C157.942 240.635 156.118 235.931 153.886 231.418C152.323 228.2 150.567 224.846 150.585 221.315C150.585 221.087 150.585 220.854 150.613 220.621C150.676 219.598 150.871 218.587 151.193 217.614C151.323 217.244 151.465 216.88 151.624 216.522C151.996 215.671 152.411 214.84 152.869 214.032C153.164 213.497 153.477 212.968 153.778 212.434C153.875 212.275 153.966 212.11 154.057 211.951L154.034 211.928ZM409.185 87.5994C409.105 87.463 409.048 87.3265 408.986 87.2014C408.986 87.1446 408.929 87.0991 408.906 87.0423C408.782 87.1007 408.655 87.152 408.525 87.1958C408.275 87.2924 408.02 87.3834 407.758 87.4573C407.497 87.5312 407.389 87.571 407.19 87.6165L406.684 87.7473L406.73 87.8496C406.94 87.8041 407.145 87.7643 407.355 87.7075L407.412 88.4125C407.65 88.4125 407.872 88.3784 408.088 88.3784H408.395C408.838 88.3784 409.224 88.3784 409.531 88.3784C409.412 88.1225 409.287 87.8553 409.185 87.5994Z" fill="url(#paint1_linear_1158_155174)"/>
<path d="M285.018 171.11L281.609 172.616C281.609 172.616 259.384 259.004 259.384 265.986C259.384 272.968 306.51 311.819 306.51 311.819L313.863 262.16C313.863 262.16 303.305 148.282 285.018 171.11Z" fill="#E8F5FF"/>
<path d="M388.392 143.631L368.702 133.352C367.599 128.648 365.642 124.186 362.928 120.189C360.047 116.028 356.217 111.94 351.443 109.807C339.379 104.395 402.473 75.9834 402.473 75.9834C403.467 79.3964 404.638 82.7555 405.98 86.047C409.23 94.0752 414.623 104.457 421.573 107.414C433.387 112.446 388.392 143.631 388.392 143.631Z" fill="#FFC1C7"/>
<path opacity="0.1" d="M405.98 86.047C403.284 95.5335 397.677 103.933 389.953 110.059C382.228 116.186 372.774 119.729 362.928 120.189C360.047 116.028 356.217 111.94 351.443 109.807C339.379 104.395 402.473 75.9834 402.473 75.9834C403.467 79.3964 404.638 82.7555 405.98 86.047Z" fill="black"/>
<path d="M407.753 71.7014C407.755 81.0053 404.999 90.1009 399.835 97.8378C394.67 105.575 387.328 111.605 378.738 115.167C370.147 118.729 360.694 119.662 351.573 117.847C342.453 116.033 334.075 111.554 327.499 104.975C320.923 98.3969 316.445 90.0151 314.631 80.8901C312.817 71.765 313.748 62.3066 317.307 53.711C320.866 45.1155 326.892 37.7689 334.624 32.6006C342.356 27.4322 351.447 24.6742 360.746 24.6753C366.926 24.6467 373.051 25.8435 378.767 28.1966C384.483 30.5497 389.676 34.0124 394.046 38.3848C398.417 42.7572 401.878 47.9527 404.231 53.6711C406.584 59.3895 407.78 65.5176 407.753 71.7014Z" fill="#FFC1C7"/>
<path d="M414.538 137.593L401.718 167.523L390.409 187.388H354.211L343.652 160.228L347.931 132.061H375.577L393.427 131.055L399.456 129.042L403.343 131.248L414.538 137.593Z" fill="#575A89"/>
<path opacity="0.1" d="M410.122 97.6971C410.122 97.6971 418.117 99.4028 410.957 105.276C403.797 111.149 379.095 129.827 379.095 129.827C379.095 129.827 387.772 137.559 385.976 146.617L414.725 130.583L419.839 104.929C419.839 104.929 420.413 97.2195 410.122 97.6971Z" fill="black"/>
<path opacity="0.1" d="M384.749 129.826L366.462 132.845C366.462 132.845 370.235 146.804 368.348 150.766C368.291 150.89 368.244 151.017 368.206 151.147L360.745 171.326L366.337 187.172L385.692 160.762L379.094 150.766C379.094 150.766 386.067 141.522 390.215 138.315C394.364 135.108 384.749 129.826 384.749 129.826Z" fill="black"/>
<path d="M384.749 129.048L366.462 132.061C366.462 132.061 370.235 146.02 368.348 149.982C368.291 150.106 368.244 150.233 368.206 150.363L360.745 170.542L366.337 186.388L385.692 159.961L379.094 149.965C379.094 149.965 386.067 140.721 390.215 137.514C394.364 134.307 384.749 129.048 384.749 129.048Z" fill="#DCE6F2"/>
<path d="M410.889 96.1903C410.889 96.1903 418.885 97.896 411.719 103.769C404.553 109.643 379.095 129.827 379.095 129.827C379.095 129.827 388.522 136.052 386.732 145.104L415.481 129.076L420.595 103.422C420.595 103.422 421.163 95.7127 410.889 96.1903Z" fill="#575A89"/>
<path opacity="0.1" d="M364.184 121.969C364.184 121.969 365.928 125.232 373.628 131.117C373.628 131.117 360.808 137.94 365.712 147.532L346.101 142.414L343.084 132.982L364.184 121.969Z" fill="black"/>
<path d="M363.428 121.219C363.428 121.219 365.173 124.482 372.873 130.367C372.873 130.367 360.052 137.156 364.957 146.776L345.351 141.659L342.334 132.232L363.428 121.219Z" fill="#575A89"/>
<path opacity="0.1" d="M414.538 137.593L401.718 167.523L390.432 187.388H354.211L343.652 160.228L347.926 132.061H355.614C355.489 138.634 357.887 146.355 357.734 149.226C357.473 153.945 364.769 179.406 364.769 179.406C364.769 179.406 380.038 154.696 386.068 152.495C389.858 151.114 397.888 139.617 403.337 131.248L414.538 137.593Z" fill="black"/>
<path d="M465.039 295.092L463.737 296.73C463.737 296.73 473.165 344.074 470.557 354.826C470.113 356.764 469.86 358.74 469.801 360.727V360.813C469.34 371.752 472.642 385.949 472.642 385.949C472.642 385.949 475.279 427.796 473.779 445.006H297.264C296.23 419.557 295.116 386.586 296.128 382.93C297.833 376.897 301.242 355.013 301.242 355.013L301.617 344.643C301.617 344.643 301.617 334.619 301.924 323.452C302.055 318.432 302.248 313.161 302.526 308.488C302.884 302.609 303.385 297.656 304.072 295.223C304.496 293.378 304.739 291.497 304.8 289.605C304.8 289.429 304.8 289.247 304.834 289.065C304.834 288.497 304.89 287.883 304.913 287.252C304.913 287.075 304.913 286.899 304.913 286.683C305.021 283.021 304.981 278.678 304.862 274.175C304.862 273.93 304.862 273.68 304.862 273.43C304.765 270.052 304.623 266.607 304.464 263.332C303.97 253.098 303.328 244.444 303.328 244.444L281.648 172.577L287.49 158.181L303.703 148.243L333.679 130.134C348.3 118.109 357.927 119.553 361.598 120.872C361.954 120.994 362.303 121.136 362.643 121.298C362.757 121.355 362.848 121.401 362.933 121.452C363.05 121.507 363.162 121.572 363.268 121.645C362.263 122.129 361.39 122.849 360.722 123.743C359.971 124.761 359.435 125.922 359.148 127.155C358.956 127.919 358.821 128.696 358.745 129.48C358.671 130.305 358.643 131.157 358.643 132.016C358.683 133.899 358.844 135.777 359.126 137.639C359.126 137.673 359.126 137.719 359.126 137.764C359.313 139.095 359.546 140.397 359.773 141.619C359.771 141.64 359.771 141.661 359.773 141.682C360.035 143.109 360.296 144.428 360.472 145.565C360.506 145.77 360.535 145.957 360.563 146.133C360.689 146.885 360.747 147.646 360.739 148.408C360.803 150.247 361.051 152.076 361.478 153.866C361.626 154.616 361.796 155.418 361.984 156.254C362.24 157.391 362.518 158.63 362.819 159.893C362.984 160.586 363.16 161.303 363.342 162.013C363.41 162.298 363.484 162.582 363.552 162.872L363.666 163.321C364.876 168.137 366.189 172.93 366.996 175.83C367.473 177.535 367.775 178.587 367.775 178.587C367.775 178.587 376.333 164.743 383.163 156.862C383.265 156.749 383.356 156.641 383.453 156.538C384.129 155.759 384.794 155.049 385.431 154.423C386.823 153.036 388.073 152.046 389.079 151.683C389.293 151.604 389.5 151.507 389.698 151.393C392.494 149.806 397.006 144.047 401.228 138.014C401.643 137.446 402.047 136.826 402.456 136.24C403.393 134.887 404.303 133.528 405.161 132.226C405.82 131.231 406.451 130.265 407.047 129.344C409.889 124.92 411.889 121.622 411.889 121.622L415.833 121.446L416.52 121.412H416.981L434.887 120.582C434.887 120.582 435.659 120.713 436.932 120.969C437.001 120.969 437.069 120.969 437.143 121.014C443.496 122.276 461.146 126.273 462.226 131.817C463.544 138.606 492.014 147.663 492.014 147.663C492.389 152.211 499.362 155.208 499.362 155.208C499.362 155.208 509.92 183.124 507.096 194.064C504.306 204.866 514.358 231.589 514.625 232.339L512.699 234.773L465.039 295.092Z" fill="#E8F5FF"/>
<path opacity="0.1" d="M410.116 95.7129C410.116 95.7129 427.545 90.7664 431.506 100.949C435.466 111.132 444.326 152.257 444.326 152.257C444.326 152.257 421.322 156.595 415.293 152.257C411.756 149.682 407.379 148.537 403.036 149.05L390.028 157.914L386.187 156.777C386.187 156.777 406.996 125.824 411.52 115.306C416.043 104.787 417.572 100.085 410.116 95.7129Z" fill="black"/>
<path d="M409.361 93.4385C409.361 93.4385 426.801 88.4919 430.779 98.675C434.757 108.858 443.599 149.982 443.599 149.982C443.599 149.982 420.601 154.321 414.566 149.982C411.032 147.408 406.656 146.262 402.314 146.776L389.296 155.64L385.454 154.503C385.454 154.503 406.264 123.55 410.787 113.031C415.311 102.513 416.817 97.8221 409.361 93.4385Z" fill="#E8F5FF"/>
<path opacity="0.1" d="M292.372 257.498C292.372 257.498 305.38 260.705 307.835 268.062C310.29 275.419 298.22 275.607 298.22 275.607C298.22 275.607 290.866 262.592 292.372 257.498Z" fill="black"/>
<path opacity="0.1" d="M340.822 311.819C340.822 311.819 308.965 377.085 316.319 383.311C323.672 389.537 340.822 311.819 340.822 311.819Z" fill="black"/>
<path opacity="0.1" d="M384.749 263.724C384.749 263.724 410.202 327.119 405.11 336.91C400.018 346.7 416.043 336.91 416.043 336.91L384.749 263.724Z" fill="black"/>
<path d="M420.191 326.346C420.191 326.346 334.224 330.496 359.302 357.281C384.379 384.067 435.841 358.419 435.841 358.419L420.191 326.346Z" fill="#FFC1C7"/>
<path opacity="0.1" d="M407.753 71.7016C407.76 77.8707 406.55 83.9804 404.19 89.6797C403.4 89.7707 402.61 89.8275 401.848 89.8617C400.712 87.3657 401.32 84.483 401.343 81.7368C401.365 78.9907 400.354 75.7612 397.711 75.0221C392.444 73.5381 388.807 83.3914 383.613 81.6118C379.635 80.2586 380.675 74.2204 378.385 70.7351C376.572 67.9775 372.941 67.1986 370.117 65.4701C364.11 61.7802 364.292 55.8784 361.502 50.2951C358.581 44.4446 352.409 46.173 347.051 49.6242C342.982 52.251 339.47 55.7704 335.117 57.8627C331.35 59.6821 327.116 60.3417 322.939 60.4383C320.368 60.538 317.796 60.2661 315.302 59.631C318.235 48.5973 325.079 39.0078 334.558 32.6506C344.037 26.2935 355.503 23.6027 366.818 25.0802C378.133 26.5576 388.525 32.1024 396.056 40.6805C403.587 49.2586 407.742 60.2843 407.747 71.7016H407.753Z" fill="black"/>
<path d="M347.068 48.1179C342.993 50.7447 339.487 54.2584 335.134 56.3621C331.367 58.1759 327.133 58.8354 322.956 58.932C317.842 59.0458 312.336 58.1474 308.841 54.4517C305.63 51.0403 304.863 45.7925 306.221 41.3179C307.579 36.8432 310.835 33.1305 314.66 30.4412C318.484 27.7519 322.922 25.8927 325.457 22.0435C326.798 20.008 327.446 17.6086 328.559 15.4424C332.122 8.51157 340.135 4.75903 347.88 4.29281C355.626 3.82658 363.303 6.13496 370.679 8.63665C378.055 11.1383 385.488 13.8902 393.273 14.4076C396.74 14.6237 400.343 14.4076 403.559 15.721C407.883 17.4779 410.719 21.6796 412.651 25.9552C414.816 30.7766 416.163 36.0416 415.936 41.3065C415.458 52.547 408.037 63.5772 411.299 74.3459C412.162 77.2171 413.782 80.1623 412.918 83.0336C411.657 87.2239 406.253 88.1791 401.883 88.3781C400.746 85.8821 401.354 82.9938 401.377 80.2533C401.4 77.5128 400.388 74.2777 397.751 73.5385C392.478 72.0659 388.841 81.9021 383.658 80.1282C379.709 78.7693 380.732 72.7369 378.436 69.2515C376.623 66.4883 372.986 65.715 370.168 63.9866C364.161 60.2966 364.343 54.3949 361.553 48.8116C358.609 42.9326 352.432 44.661 347.068 48.1179Z" fill="#99607E"/>
<path d="M263.709 264.475L259.373 265.987C259.373 265.987 261.078 291.641 255.395 298.998C249.712 306.355 274.057 324.646 274.057 324.646C274.057 324.646 307.425 324.458 308.369 321.803C309.312 319.148 306.664 274.271 306.664 274.271C306.664 274.271 288.752 267.289 290.258 256.162C290.258 256.162 284.791 282.379 276.688 281.247C268.584 280.116 259.384 273.344 263.709 264.475Z" fill="#E8F5FF"/>
<path opacity="0.1" d="M278.171 289.185C284.488 289.185 289.61 284.498 289.61 278.717C289.61 272.936 284.488 268.25 278.171 268.25C271.853 268.25 266.731 272.936 266.731 278.717C266.731 284.498 271.853 289.185 278.171 289.185Z" fill="black"/>
<path d="M290.679 265.23C290.679 265.23 288.406 195.82 268.619 211.285C248.832 226.75 248.639 245.245 252.406 250.709C256.174 256.173 268.255 283.527 268.255 283.527C270.145 284.623 272.267 285.255 274.448 285.372C276.629 285.489 278.807 285.087 280.803 284.199C282.799 283.312 284.556 281.964 285.931 280.265C287.306 278.567 288.259 276.567 288.713 274.43L290.679 265.23Z" fill="#FFC1C7"/>
<path opacity="0.1" d="M414.111 89.4131C414.019 89.1082 413.841 88.8359 413.6 88.6285C412.622 87.7358 410.52 87.4231 407.349 87.696L407.479 89.1971C411.707 88.8332 412.543 89.6747 412.65 89.8168V89.9589L412.781 90.1466C413.308 90.8554 413.682 91.6666 413.877 92.5282C414.073 93.3898 414.087 94.2828 413.918 95.15C412.991 99.7838 407.303 103.474 407.246 103.514L407.11 103.593L407.025 103.724C404.57 107.368 390.687 117.654 387.056 120.315L386.738 119.951C385.112 121.361 370.826 133.875 370.053 138.668C369.553 141.676 366.166 142.841 364.939 143.165C363.643 142.182 359.438 138.833 357.25 135.08C355.199 131.55 363.456 124.659 364.183 121.969L363.047 120.804C362.927 121.236 352.324 131.152 355.273 136.218C357.637 140.283 361.956 143.762 363.467 144.911C362.984 149.3 359.978 175.073 355.358 181.18C349.619 188.77 344.794 227.023 345.328 240.379C345.8 252.245 342.703 274.658 332.36 284.284C330.57 286.023 328.41 287.336 326.041 288.123C323.673 288.911 321.157 289.153 318.682 288.832H318.557H318.432C318.285 288.832 303.282 290.367 290.678 279.735C280.364 271.053 274.523 256.884 273.306 237.61H273.056L272.954 231.998C275.751 231.562 278.269 230.057 279.98 227.802C281.692 225.546 282.463 222.715 282.131 219.902C281.8 217.09 280.391 214.516 278.203 212.72C276.014 210.925 273.215 210.048 270.393 210.274C267.572 210.501 264.948 211.812 263.073 213.933C261.198 216.055 260.218 218.82 260.338 221.65C260.458 224.479 261.67 227.152 263.719 229.106C265.767 231.06 268.493 232.143 271.323 232.129H271.448L271.55 237.707L271.05 237.741C272.301 257.641 278.438 272.361 289.235 281.452C297.441 288.256 307.924 291.688 318.563 291.055C319.318 291.138 320.077 291.18 320.836 291.18C325.713 291.205 330.405 289.317 333.906 285.921C344.8 275.772 348.113 252.535 347.596 240.265C347.027 226.114 352.091 189.236 357.171 182.522C362.149 175.932 365.166 150.255 365.695 145.28C367.496 144.774 371.571 143.177 372.264 139.026C372.764 136.024 382.305 126.774 388.175 121.651L387.999 121.446C391.159 119.138 400.984 111.86 405.854 107.187C407.366 105.737 408.866 104.287 410.434 102.905C412.321 101.234 414.719 98.5784 415.35 95.4399C415.565 94.4039 415.566 93.3349 415.353 92.2984C415.14 91.262 414.717 90.2801 414.111 89.4131Z" fill="black"/>
<path d="M363.275 144.552C363.036 144.387 357.376 140.333 354.541 135.455C351.597 130.389 362.201 120.479 362.314 120.047L363.451 121.212C362.729 123.896 354.472 130.793 356.524 134.318C359.109 138.77 364.553 142.664 364.61 142.704L363.275 144.552Z" fill="#353146"/>
<path d="M386.317 121.417L385.431 120.195C385.613 120.064 403.462 107.146 406.275 102.967L406.365 102.842L406.496 102.757C406.553 102.717 412.241 99.0326 413.168 94.3931C413.338 93.5269 413.326 92.6344 413.13 91.7735C412.934 90.9126 412.56 90.1024 412.031 89.3954L411.9 89.2021V89.0656C411.787 88.9178 410.951 88.082 406.724 88.4459L406.593 86.9392C409.769 86.6663 411.866 86.979 412.844 87.8717C413.087 88.0811 413.266 88.3551 413.361 88.662C413.975 89.5264 414.406 90.5077 414.627 91.5452C414.848 92.5827 414.854 93.6545 414.645 94.6945C414.014 97.8386 411.622 100.494 409.73 102.16C408.167 103.541 406.661 105.003 405.155 106.441C399.444 111.916 386.942 120.968 386.317 121.417Z" fill="#E8F5FF"/>
<path d="M272.221 230.018L270.716 230.046L270.884 239.204L272.389 239.176L272.221 230.018Z" fill="#E8F5FF"/>
<path d="M270.591 231.407C276.664 231.407 281.587 226.481 281.587 220.405C281.587 214.329 276.664 209.403 270.591 209.403C264.518 209.403 259.595 214.329 259.595 220.405C259.595 226.481 264.518 231.407 270.591 231.407Z" fill="#6C63FF"/>
<path d="M270.59 229.541C275.633 229.541 279.722 225.451 279.722 220.404C279.722 215.358 275.633 211.268 270.59 211.268C265.547 211.268 261.458 215.358 261.458 220.404C261.458 225.451 265.547 229.541 270.59 229.541Z" fill="#E8F5FF"/>
<path d="M320.121 290.447C319.361 290.448 318.603 290.408 317.848 290.327C307.209 290.954 296.729 287.523 288.519 280.724C277.722 271.627 271.597 256.924 270.335 237.007L272.608 236.865C273.824 256.139 279.666 270.314 289.986 278.99C302.59 289.594 317.586 288.087 317.734 288.087H317.859H317.984C320.46 288.407 322.976 288.164 325.345 287.376C327.714 286.589 329.875 285.277 331.668 283.539C342.004 273.913 345.102 251.5 344.63 239.634C344.062 226.267 348.886 188.014 354.631 180.429C359.66 173.783 362.78 143.825 362.814 143.523L362.9 142.671L363.741 142.523C363.792 142.523 368.702 141.59 369.315 137.917C370.111 133.13 384.374 120.616 385.994 119.2L387.477 120.906C381.584 126.023 372.043 135.279 371.566 138.287C370.872 142.449 366.798 144.041 365.002 144.541C364.434 149.522 361.439 175.193 356.478 181.782C351.398 188.497 346.335 225.374 346.903 239.526C347.392 251.796 344.113 275.039 333.219 285.182C329.711 288.587 325.008 290.477 320.121 290.447Z" fill="#353146"/>
<g opacity="0.1">
<path d="M412.594 58.2602C413.526 54.8147 414.651 51.3465 415.435 47.8555C414.497 51.3635 413.367 54.8147 412.594 58.2602Z" fill="black"/>
<path d="M403.087 85.3357C401.95 82.8397 402.558 79.9514 402.581 77.2109C402.604 74.4704 401.592 71.2637 398.955 70.4961C393.682 69.0236 390.045 78.8654 384.862 77.0858C380.885 75.727 381.936 69.6945 379.64 66.2091C377.827 63.4459 374.196 62.6727 371.377 60.9442C365.365 57.2542 365.547 51.3525 362.763 45.7692C359.836 39.9129 353.67 41.6414 348.306 45.0983C344.232 47.725 340.725 51.2445 336.372 53.3425C332.605 55.1562 328.371 55.8158 324.195 55.9124C319.109 56.0318 313.574 55.1278 310.079 51.4321C307.385 48.5893 306.414 44.4217 306.97 40.5156C306.874 40.7829 306.789 41.0501 306.703 41.3173C305.339 45.7919 306.135 51.0512 309.323 54.4512C312.818 58.1469 318.353 59.0452 323.439 58.9315C327.621 58.8348 331.849 58.1753 335.622 56.3616C339.987 54.2579 343.493 50.7441 347.556 48.1174C352.92 44.6605 359.092 42.932 362.012 48.7883C364.797 54.3716 364.621 60.2733 370.627 63.9633C373.469 65.669 377.077 66.465 378.896 69.2282C381.169 72.7249 380.163 78.746 384.118 80.1049C389.295 81.8788 392.932 72.0426 398.205 73.5152C400.842 74.2544 401.859 77.4952 401.831 80.23C401.802 82.9648 401.211 85.8588 402.337 88.3548C406.706 88.1558 412.111 87.2177 413.378 83.0103C413.552 82.4065 413.633 81.7794 413.617 81.1511C411.77 84.3407 407.019 85.1595 403.087 85.3357Z" fill="black"/>
</g>
<path opacity="0.1" d="M505.789 225.431L512.387 232.413C512.387 232.413 517.666 270.888 520.303 274.487C522.94 278.086 529.168 292.402 523.32 303.154C523.32 303.154 521.434 309.004 522.565 311.455C523.695 313.905 514.086 326.169 514.086 326.169C514.086 326.169 501.453 337.484 498.811 339.184C496.169 340.884 482.223 354.461 477.513 354.649C472.802 354.837 471.262 360.687 471.262 360.687L444.678 361.631C444.678 361.631 429.994 360.863 426.801 362.939C426.801 362.939 428.505 340.492 412.1 325.777L433.023 318.232C433.023 318.232 440.945 314.821 443.394 311.256C444.935 309.07 447.121 307.422 449.645 306.543C449.645 306.543 455.487 302.392 455.674 300.129C455.862 297.866 462.817 295.092 462.817 295.092L458.879 261.461L460.953 205.628C460.953 205.628 467.551 158.846 481.502 161.49C495.453 164.134 505.789 225.431 505.789 225.431Z" fill="black"/>
<path d="M508.063 225.431L514.66 232.413C514.66 232.413 519.94 270.888 522.576 274.487C525.213 278.086 531.441 292.402 525.594 303.154C525.594 303.154 523.713 309.004 524.844 311.455C525.975 313.905 516.359 326.169 516.359 326.169C516.359 326.169 503.727 337.484 501.084 339.184C498.442 340.884 484.497 354.461 479.786 354.649C475.075 354.837 473.535 360.687 473.535 360.687L446.952 361.631C446.952 361.631 432.256 360.863 429.074 362.939C429.074 362.939 430.779 340.492 414.373 325.777L435.297 318.232C435.297 318.232 443.218 314.821 445.667 311.256C447.208 309.07 449.394 307.422 451.918 306.543C451.918 306.543 457.76 302.392 457.948 300.129C458.135 297.866 465.091 295.092 465.091 295.092L461.153 261.461L463.227 205.628C463.227 205.628 469.824 158.846 483.775 161.49C497.726 164.134 508.063 225.431 508.063 225.431Z" fill="#E8F5FF"/>
<path opacity="0.1" d="M483.536 281.833C483.536 281.833 502.954 276.716 508.045 282.97C513.137 289.224 483.536 281.833 483.536 281.833Z" fill="black"/>
<path opacity="0.1" d="M479.013 290.412C485.61 295.035 505.971 295.222 505.971 295.222L479.013 290.412Z" fill="black"/>
<path opacity="0.1" d="M489.003 313.519C489.571 313.706 502.999 328.045 508.636 323.707C514.274 319.369 489.003 313.519 489.003 313.519Z" fill="black"/>
<path opacity="0.1" d="M308.158 193.176C308.158 193.176 312.102 220.342 310.159 231.406C308.215 242.47 315.307 256.179 315.307 256.179L308.158 193.176Z" fill="black"/>
<path d="M220.85 204.224C216.304 207.789 212.986 216.226 210.582 225.499C206.388 241.675 205.019 260.432 205.019 260.432C205.019 260.432 168.82 252.131 171.457 248.361C173.116 245.991 170.889 228.126 169.03 215.174C167.922 207.521 166.934 201.58 166.934 201.58C166.934 201.58 233.295 194.41 220.85 204.224Z" fill="#FFCCD0"/>
<path opacity="0.1" d="M220.85 203.467C216.304 207.038 212.986 215.47 210.582 224.743C203.37 226.934 195.7 227.132 188.384 225.315C181.069 223.498 174.381 219.735 169.03 214.424C167.922 206.765 166.934 200.823 166.934 200.823C166.934 200.823 233.295 193.66 220.85 203.467Z" fill="black"/>
<path d="M240.308 183.147C240.312 193.036 236.819 202.608 230.447 210.168C224.075 217.728 215.236 222.789 205.494 224.455C195.751 226.122 185.733 224.286 177.213 219.273C168.694 214.26 162.221 206.393 158.941 197.064C155.661 187.735 155.785 177.546 159.292 168.301C162.798 159.055 169.461 151.348 178.101 146.544C186.74 141.741 196.8 140.15 206.499 142.054C216.198 143.958 224.911 149.234 231.096 156.947C237.057 164.377 240.306 173.619 240.308 183.147Z" fill="#FFCCD0"/>
<path opacity="0.1" d="M273.312 445.005H261.378L260.373 423.917L259.321 402.09C259.321 402.09 262.032 401.686 266.351 401.084L268.095 400.851H268.237C269.181 405.28 270.113 409.828 271.01 414.371C272.505 422.436 273.283 430.617 273.335 438.819C273.335 439.388 273.335 439.957 273.335 440.491C273.369 442.009 273.335 443.527 273.312 445.005Z" fill="black"/>
<path d="M271.022 445.006H121.364C122.012 443.533 122.444 442.641 122.444 442.641C122.444 442.641 134.417 390.23 140.503 368.056C140.505 368.037 140.505 368.018 140.503 367.999C141.264 364.987 142.182 362.017 143.254 359.101C143.323 358.903 143.413 358.712 143.521 358.532C146.533 353.631 150.306 348.349 145.027 340.805C139.748 333.26 141.617 300.061 141.617 300.061C141.617 300.061 148.027 271.764 154.812 256.674C155.842 254.336 157.303 252.215 159.12 250.42C159.71 249.841 160.341 249.306 161.006 248.816C161.512 248.436 162.04 248.084 162.586 247.764L162.694 247.696C165.544 246.079 168.71 245.096 171.974 244.813C174.293 244.571 176.633 244.636 178.935 245.007C189.937 246.622 198.745 249.322 205.746 252.398C224.72 260.739 230.465 271.917 230.579 272.15L230.624 272.247C231.386 274.026 242.524 300.044 246.536 312.183C247.576 315.344 248.144 317.567 247.917 318.176C246.78 321.189 256.588 358.913 256.588 358.913C256.588 358.913 261.135 377.108 265.681 398.434C265.88 399.321 266.067 400.208 266.249 401.107C267.062 404.979 267.868 408.925 268.647 412.865C270.155 420.985 270.933 429.224 270.971 437.484C271.055 440.057 271.072 442.565 271.022 445.006Z" fill="#FF748E"/>
<path opacity="0.1" d="M171.081 231.839C171.081 231.839 160.756 227.859 160.881 233.897C161.006 239.935 163.398 242.823 162.643 243.705C161.887 244.586 163.018 249.868 163.018 249.868C163.018 249.868 176.969 249.868 183.379 252.756C189.789 255.645 213.417 261.433 216.435 263.195C219.452 264.958 230.641 272.861 230.641 272.861L231.647 257.896C231.647 257.896 220.083 248.339 201.108 243.437C182.134 238.536 171.081 231.839 171.081 231.839Z" fill="black"/>
<path d="M171.081 231.083C171.081 231.083 160.756 227.103 160.881 233.141C161.006 239.179 163.398 242.068 162.643 242.949C161.887 243.83 163.018 249.112 163.018 249.112C163.018 249.112 176.969 249.112 183.379 252.006C189.789 254.9 213.417 260.682 216.435 262.439C219.452 264.196 230.641 272.105 230.641 272.105L231.658 257.186C231.658 257.186 220.094 247.628 201.12 242.727C182.145 237.826 171.081 231.083 171.081 231.083Z" fill="#FF748E"/>
<path opacity="0.1" d="M202.251 267.096C202.251 267.096 221.981 288.468 220.975 294.387C219.969 300.306 202.251 267.096 202.251 267.096Z" fill="black"/>
<path opacity="0.1" d="M170.201 344.301C170.201 344.301 155.739 357.634 151.477 358.39C147.215 359.146 154.744 361.659 159.643 359.652C164.541 357.645 174.986 352.363 174.986 352.363L170.201 344.301Z" fill="black"/>
<path d="M276.899 445.005H243.172C238.455 440.912 233.995 437.119 231.153 434.84C226.607 431.189 223.328 425.816 221.237 421.495C220.765 420.512 220.356 419.591 220.01 418.755C219.389 417.315 218.843 415.844 218.373 414.348L243.348 399.509C244.729 400.683 246.025 401.952 247.23 403.307L247.531 403.654C248.917 405.291 250.139 407.15 250.247 408.674C250.372 410.448 255.305 417.311 260.345 423.9C265.459 430.604 270.699 437.011 271.045 437.444C271.045 437.444 271.909 438.62 273.319 440.429C274.313 441.736 275.54 443.305 276.899 445.005Z" fill="#FFCCD0"/>
<path opacity="0.1" d="M231.096 156.947C229.897 159.653 228.823 162.462 228.663 165.475C228.215 174.174 228.942 193.625 219.316 197.992C214.548 200.141 209.445 195.422 204.217 195.308C200.455 195.228 197.005 197.616 194.71 200.601C192.414 203.586 190.988 207.128 189.323 210.506C187.807 213.571 186.061 216.517 184.1 219.319C183.514 220.176 182.868 220.991 182.168 221.758C176.298 219.28 171.071 215.493 166.885 210.688C162.7 205.882 159.665 200.184 158.014 194.028C156.362 187.871 156.137 181.419 157.356 175.162C158.574 168.905 161.204 163.01 165.045 157.924C168.885 152.838 173.836 148.696 179.519 145.815C185.201 142.933 191.467 141.387 197.837 141.295C204.207 141.203 210.515 142.567 216.278 145.284C222.042 148 227.11 151.997 231.096 156.97V156.947Z" fill="black"/>
<path d="M227.909 163.941C227.454 172.64 228.187 192.09 218.555 196.451C213.787 198.601 208.684 193.887 203.456 193.773C199.694 193.688 196.251 196.082 193.949 199.061C191.648 202.04 190.233 205.588 188.562 208.971C187.046 212.036 185.3 214.982 183.34 217.784C182.169 219.444 180.873 221.11 179.072 222.043C175.935 223.68 172.133 222.759 168.769 221.707C164.405 220.331 160.105 218.781 155.87 217.056C155.967 216.416 156.016 215.77 156.017 215.123C155.892 215.362 155.756 215.584 155.62 215.822L155.353 216.289C154.87 217.142 154.398 217.994 153.966 218.87C153.801 219.205 153.642 219.552 153.5 219.899C152.928 221.19 152.57 222.564 152.437 223.97C152.148 227.762 154.017 231.361 155.676 234.773C162.058 247.969 166.002 263.4 161.2 277.245C159.12 283.266 155.517 288.616 152.886 294.432C148.287 304.734 146.933 316.193 149.005 327.284C150.318 334.175 152.949 340.998 152.301 347.986C151.164 360.011 140.799 368.96 130.417 375.112C124.808 378.421 117.944 381.366 111.988 378.751C115.784 374.316 116.762 368.181 117.58 362.393C119.819 346.606 122.064 330.811 124.314 315.009C125.212 308.721 126.108 302.432 127.002 296.144C128.673 284.329 130.366 272.383 129.32 260.495C128.559 251.733 126.411 242.431 130.207 234.5C132.213 230.298 135.787 226.818 136.901 222.293C137.816 218.614 136.963 214.702 137.566 210.955C137.896 209.251 138.454 207.598 139.225 206.043C140.208 203.933 141.49 201.975 143.033 200.232C141.51 199.789 140.089 199.18 139.225 197.907C141.669 196.315 142.038 192.727 140.93 190.032C139.822 187.337 137.606 185.285 135.611 183.158C133.616 181.032 131.696 178.553 131.446 175.653C130.963 170.132 136.475 165.857 137.447 160.41C138.43 154.866 134.543 149.476 134.855 143.865C135.219 137.082 141.447 132.152 147.596 129.292C156.874 124.995 167.124 123.229 177.305 124.175C185.59 124.96 193.608 127.524 201.871 128.519C206.854 129.088 211.906 129.144 216.856 130.02C221.805 130.896 226.766 132.743 230.25 136.377C239.433 145.957 228.431 153.843 227.909 163.941Z" fill="#FFE0D0"/>
<path opacity="0.1" d="M220.225 421.501C217.327 420.245 212.053 420.995 203.001 418.238C193.948 415.48 192.204 403.017 192.204 403.017V402.977C192.096 402.693 191.255 400.839 185.561 394.346C179.27 387.177 165.672 350.965 165.672 350.965C165.672 350.965 153.613 338.007 153.994 333.231C154.375 328.455 151.851 315.748 152.101 301.534C152.351 287.319 179.247 277.893 179.247 277.893C231.033 268.71 218.838 328.444 217.458 332.97C216.077 337.495 223.242 349.72 223.242 349.72C222.231 355.041 227.391 363.28 227.391 363.28C227.391 363.28 228.641 370.569 228.897 373.338C228.911 373.466 228.939 373.592 228.982 373.713C229.812 376.323 236.574 378.688 239.324 380.127C242.217 381.639 251.519 394.841 251.519 394.841C253.525 404.535 223.112 422.775 220.225 421.501Z" fill="black"/>
<path d="M221.731 419.227C218.839 417.964 213.559 418.721 204.513 415.957C195.466 413.194 193.716 400.743 193.716 400.743V400.703C193.613 400.413 192.767 398.565 187.073 392.072C180.782 384.902 167.183 348.685 167.183 348.685C167.183 348.685 155.125 335.733 155.5 330.957C155.875 326.181 153.363 313.473 153.613 299.271C153.863 285.068 180.742 275.647 180.742 275.647C232.528 266.464 220.333 326.198 218.952 330.724C217.571 335.249 224.737 347.474 224.737 347.474C223.726 352.795 228.886 361.034 228.886 361.034C228.886 361.034 230.136 368.323 230.397 371.092C230.407 371.22 230.433 371.346 230.477 371.467C231.306 374.077 238.069 376.442 240.825 377.881C243.712 379.387 253.02 392.595 253.02 392.595C255.037 402.272 224.624 420.512 221.731 419.227Z" fill="#FF748E"/>
<path opacity="0.1" d="M181.765 306.833C181.765 306.833 204.387 330.713 210.292 330.713C216.196 330.713 181.765 306.833 181.765 306.833Z" fill="black"/>
<path d="M221.731 419.227C218.839 417.964 213.56 418.721 204.513 415.957C195.466 413.194 193.716 400.743 193.716 400.743V400.703C199.711 396.723 214.895 385.482 220.879 381.371C225.09 378.489 228.528 374.253 230.539 371.444C231.369 374.054 238.131 376.419 240.887 377.858C243.774 379.364 253.082 392.572 253.082 392.572C255.037 402.272 224.624 420.512 221.731 419.227Z" fill="#FF748E"/>
<g opacity="0.1">
<path d="M139.26 197.969C139.288 198.014 139.328 198.054 139.362 198.1C139.533 197.884 139.709 197.668 139.891 197.463C139.697 197.651 139.486 197.821 139.26 197.969Z" fill="black"/>
<path d="M152.443 224.032C152.682 220.877 154.369 218.096 155.949 215.322C154.915 214.924 153.881 214.52 152.858 214.099C152.955 213.461 153.005 212.817 153.006 212.172C151.409 215.015 149.67 217.812 149.426 221.013C149.136 224.811 151.005 228.404 152.665 231.816C159.052 245.007 162.99 260.438 158.188 274.288C156.103 280.303 152.506 285.659 149.874 291.476C145.277 301.776 143.925 313.233 145.999 324.322C147.3 331.218 149.937 338.035 149.289 345.023C148.153 357.048 137.793 365.998 127.405 372.144C123.16 374.657 118.199 376.96 113.454 376.795C113.015 377.502 112.525 378.177 111.988 378.813C117.949 381.446 124.808 378.483 130.417 375.163C140.811 369.022 151.193 360.096 152.329 348.048C152.977 341.06 150.34 334.243 149.033 327.346C146.959 316.259 148.307 304.803 152.898 294.5C155.512 288.69 159.149 283.328 161.211 277.313C166.013 263.462 162.069 248.031 155.688 234.841C154.034 231.406 152.153 227.83 152.443 224.032Z" fill="black"/>
<path d="M230.239 136.445C229.68 135.871 229.08 135.339 228.443 134.853C235.331 143.79 225.386 151.386 224.891 161.007C224.448 169.706 225.176 189.162 215.544 193.517C210.781 195.672 205.673 190.953 200.45 190.839C196.683 190.76 193.239 193.153 190.938 196.133C188.636 199.112 187.221 202.66 185.556 206.037C184.037 209.102 182.29 212.048 180.328 214.85C179.192 216.516 177.862 218.176 176.055 219.114C172.929 220.746 169.128 219.83 165.758 218.773C162.481 217.742 159.234 216.605 156.018 215.362C156.011 215.954 155.962 216.545 155.87 217.13C160.109 218.858 164.411 220.409 168.775 221.781C172.14 222.838 175.941 223.754 179.072 222.122C180.874 221.184 182.181 219.518 183.346 217.852C185.309 215.054 187.054 212.11 188.568 209.045C190.239 205.667 191.648 202.114 193.955 199.135C196.262 196.155 199.7 193.767 203.462 193.847C208.69 193.961 213.799 198.68 218.561 196.525C228.193 192.17 227.46 172.713 227.909 164.014C228.432 153.9 239.433 146.019 230.239 136.445Z" fill="black"/>
</g>
<path opacity="0.1" d="M155.358 216.294C154.875 217.147 154.403 217.999 153.971 218.875C153.806 219.211 153.647 219.557 153.505 219.904C150.528 216.902 143.277 209.767 139.23 207.555C140.214 205.445 141.497 203.488 143.038 201.744C143.038 201.744 152.681 206.844 155.358 216.294Z" fill="black"/>
<path d="M155.625 215.827C153.392 205.713 143.038 200.237 143.038 200.237C141.495 201.98 140.213 203.938 139.23 206.048C143.498 208.385 151.363 216.22 153.971 218.875L155.625 215.827Z" fill="#FF748E"/>
</g>
<defs>
<linearGradient id="paint0_linear_1158_155174" x1="414.85" y1="54.2471" x2="414.85" y2="43.7969" gradientUnits="userSpaceOnUse">
<stop stop-color="#808080" stop-opacity="0.25"/>
<stop offset="0.54" stop-color="#808080" stop-opacity="0.12"/>
<stop offset="1" stop-color="#808080" stop-opacity="0.1"/>
</linearGradient>
<linearGradient id="paint1_linear_1158_155174" x1="319.836" y1="445.006" x2="319.836" y2="0.000407351" gradientUnits="userSpaceOnUse">
<stop stop-color="#808080" stop-opacity="0.25"/>
<stop offset="0.54" stop-color="#808080" stop-opacity="0.12"/>
<stop offset="1" stop-color="#808080" stop-opacity="0.1"/>
</linearGradient>
<clipPath id="clip0_1158_155174">
<rect width="617.209" height="445" fill="white"/>
</clipPath>
</defs>
</svg>
