<svg width="219" height="87" viewBox="0 0 219 87" fill="none"
    xmlns="http://www.w3.org/2000/svg">
    <g clip-path="url(#clip0_1158_139503)">
        <path d="M71.3151 17.8023C68.4564 12.2202 64.3724 7.84509 59.1144 4.77746C56.1536 3.06763 53.0396 1.8104 49.8235 1.10636C46.5564 0.352023 42.5745 0 37.827 0H20.7256V13.0249H29.8633V7.7948H38.899C48.1389 7.7948 55.2857 11.0636 60.2885 17.5509C63.9641 22.3283 65.8018 27.9104 65.8018 34.2468C65.8018 41.6896 63.2494 47.9254 58.1445 52.904C53.5501 57.3295 47.6284 59.5925 40.3284 59.5925H35.5808V67.689H41.9619C54.9794 67.689 64.6277 62.1572 70.9578 51.1439C73.8675 45.9139 75.348 40.3318 75.348 34.2971C75.2969 28.4133 73.9696 22.9318 71.3151 17.8023Z" fill="#00AEC1"/>
        <path d="M29.8633 17.9033H20.7256V67.6894H29.8633V17.9033Z" fill="#8CC63F"/>
        <path d="M50.5385 38.3208H0V47.3225H50.5385V38.3208Z" fill="#8CC63F"/>
        <path d="M110.01 60.5482V67.6893H103.884C98.8305 67.6893 94.8998 67.0858 92.0921 65.8788C87.4466 63.8673 83.8221 60.6488 81.2697 56.1228C79.2277 52.502 78.2578 48.7303 78.2578 44.7072C78.2578 40.5835 79.3809 36.6106 81.576 32.8892C84.0774 28.6147 87.4977 25.4968 91.8368 23.5858C94.8487 22.2783 98.6774 21.5742 103.272 21.5742H110.061V28.665H105.161C99.6984 28.665 95.3592 30.0228 92.2452 32.6881C88.6207 35.7557 86.834 39.7788 86.834 44.7575C86.834 49.8869 88.7228 53.9101 92.5515 56.8268C95.6655 59.1904 99.8005 60.3973 104.956 60.3973H110.01V60.5482Z" fill="#00AEC1"/>
        <path d="M123.385 28.9163V50.3897C123.385 52.9042 123.64 54.7649 124.151 56.0221C124.712 57.6313 125.784 58.788 127.265 59.4417C128.796 60.0955 131.093 60.4475 134.258 60.4475H138.291V67.6891H133.799C129.97 67.6891 126.958 67.3874 124.865 66.8342C121.394 65.929 118.893 64.1689 117.412 61.6545C115.881 59.14 115.166 55.4689 115.166 50.6412V7.74463H123.385V21.7753H138.342V28.866H123.385V28.9163Z" fill="#00AEC1"/>
        <path d="M162.795 19.7134C169.483 19.7134 175.149 22.1273 179.897 26.9047C184.593 31.6319 186.941 37.214 186.941 43.7515C186.941 50.3394 184.593 55.9718 179.845 60.6486C175.149 65.3255 169.38 67.6388 162.591 67.6388C155.75 67.6388 149.931 65.2752 145.132 60.5984C140.334 55.8712 137.985 50.2388 137.985 43.7012C137.985 40.4827 138.649 37.3648 139.925 34.3475C141.201 31.3301 142.988 28.7654 145.285 26.603C150.084 22.0267 155.955 19.7134 162.795 19.7134ZM162.285 27.7093C158.099 27.7093 154.423 29.218 151.309 32.2353C148.093 35.3533 146.459 39.1249 146.459 43.651C146.459 48.177 148.093 51.9989 151.309 55.1168C154.423 58.1845 158.15 59.6931 162.591 59.6931C167.032 59.6931 170.759 58.1342 173.822 55.0163C176.885 51.8983 178.416 48.177 178.416 43.8521C178.416 39.4267 176.885 35.6047 173.771 32.4365C170.606 29.3186 166.828 27.7093 162.285 27.7093Z" fill="#00AEC1"/>
        <path d="M200.622 67.6892H192.403V21.6244H200.622V29.6707C202.001 27.1059 203.532 25.1949 205.217 23.9377C208.28 21.6747 211.802 20.5684 215.784 20.5684C216.498 20.5684 217.57 20.6186 219 20.7695V28.4134C217.877 28.3632 217.06 28.3129 216.549 28.3129C211.649 28.3129 207.871 29.721 205.115 32.4869C203.277 34.3475 202.001 36.6608 201.286 39.477C200.826 41.2874 200.622 43.7516 200.622 46.7689V67.6892Z" fill="#00AEC1"/>
        <path d="M24.7584 77.8475H21.2871V76.0874H30.1186V77.8475H26.6472V86.799H24.7074V77.8475H24.7584Z" fill="#8CC63F"/>
        <path d="M33.3857 76.0874H35.2746V80.5631H40.4815V76.0874H42.3704V86.799H40.4815V82.273H35.3256V86.799H33.4368V76.0874H33.3857Z" fill="#8CC63F"/>
        <path d="M46.4541 76.0874H54.5198V77.7469H48.394V80.5128H53.8562V82.1724H48.3429V85.0388H54.5709V86.6984H46.4541V76.0874Z" fill="#8CC63F"/>
        <path d="M63.5049 81.4683C63.5049 78.4007 65.8021 75.8862 69.1203 75.8862C71.1112 75.8862 72.3363 76.5903 73.3573 77.5458L72.1322 78.9539C71.2643 78.1492 70.3454 77.6463 69.0692 77.6463C66.9762 77.6463 65.4958 79.3059 65.4958 81.418V81.4683C65.4958 83.5805 66.9762 85.2903 69.0692 85.2903C70.3965 85.2903 71.2643 84.7371 72.1832 83.8822L73.4084 85.0891C72.2853 86.2458 71.0091 87.0001 69.0182 87.0001C65.8531 87.0001 63.5049 84.5359 63.5049 81.4683Z" fill="#8CC63F"/>
        <path d="M80.5545 76.0371H82.3412L87.1398 86.799H85.0978L83.9747 84.2342H78.8188L77.6957 86.799H75.7559L80.5545 76.0371ZM83.2601 82.5244L81.3712 78.2498L79.5335 82.5244H83.2601Z" fill="#8CC63F"/>
        <path d="M90.2031 76.0874H95.0528C96.4311 76.0874 97.5031 76.4897 98.1668 77.1435C98.7283 77.7469 99.0856 78.5013 99.0856 79.4568V79.5071C99.0856 81.2672 98.0136 82.3232 96.4821 82.7256L99.3919 86.799H97.1458L94.4912 83.0776H92.0919V86.799H90.2031V76.0874ZM94.8996 81.418C96.2779 81.418 97.1458 80.714 97.1458 79.6076V79.5573C97.1458 78.4007 96.329 77.7972 94.8996 77.7972H92.143V81.3677H94.8996V81.418Z" fill="#8CC63F"/>
        <path d="M102.659 76.0874H110.725V77.7469H104.599V80.5128H110.061V82.1724H104.599V85.0388H110.776V86.6984H102.659V76.0874Z" fill="#8CC63F"/>
        <path d="M123.385 82.5747L119.046 76.0874H121.292L124.355 80.8146L127.418 76.0874H129.613L125.274 82.5244V86.799H123.334V82.5747H123.385Z" fill="#8CC63F"/>
        <path d="M131.145 81.4683C131.145 78.4007 133.493 75.8862 136.862 75.8862C140.18 75.8862 142.528 78.4007 142.528 81.3677V81.418C142.528 84.4354 140.18 86.9498 136.811 86.9498C133.442 87.0001 131.145 84.4857 131.145 81.4683ZM140.486 81.4683C140.486 79.3562 138.955 77.6463 136.811 77.6463C134.667 77.6463 133.135 79.3562 133.135 81.418V81.4683C133.135 83.5302 134.667 85.2903 136.811 85.2903C139.006 85.24 140.486 83.5805 140.486 81.4683Z" fill="#8CC63F"/>
        <path d="M145.897 82.273V76.0874H147.786V82.1724C147.786 84.1839 148.807 85.24 150.543 85.24C152.228 85.24 153.3 84.2342 153.3 82.273V76.0874H155.188V82.1724C155.188 85.3909 153.351 86.9498 150.492 86.9498C147.684 86.9498 145.897 85.3406 145.897 82.273Z" fill="#8CC63F"/>
        <path d="M164.122 76.0874H166.164L168.768 84.0331L171.422 76.0874H173.056L175.71 84.0331L178.314 76.0874H180.305L176.527 86.8492H174.893L172.239 79.155L169.584 86.8492H167.951L164.122 76.0874Z" fill="#8CC63F"/>
        <path d="M185.971 76.0371H187.758L192.557 86.799H190.515L189.392 84.2342H184.236L183.113 86.799H181.173L185.971 76.0371ZM188.677 82.5244L186.788 78.2498L184.95 82.5244H188.677Z" fill="#8CC63F"/>
        <path d="M195.619 76.0874H197.406L203.225 83.4799V76.0874H205.114V86.799H203.532L197.559 79.2053V86.799H195.67V76.0874H195.619Z" fill="#8CC63F"/>
        <path d="M211.801 77.8475H208.33V76.0874H217.162V77.8475H213.69V86.799H211.75V77.8475H211.801Z" fill="#8CC63F"/>
    </g>
    <defs>
        <clipPath id="clip0_1158_139503">
            <rect width="219" height="87" fill="white"/>
        </clipPath>
    </defs>
</svg>
