<svg width="85" height="27" viewBox="0 0 85 27" fill="none"
    xmlns="http://www.w3.org/2000/svg">
    <path d="M27.6791 6.95723C26.5696 4.77572 24.9845 3.0659 22.9437 1.86705C21.7945 1.19884 20.5859 0.707515 19.3377 0.43237C18.0696 0.137572 16.5241 0 14.6815 0H8.04395V5.09017H11.5906V3.04624H15.0976C18.6838 3.04624 21.4577 4.3237 23.3994 6.85896C24.826 8.72601 25.5393 10.9075 25.5393 13.3838C25.5393 16.2925 24.5486 18.7295 22.5673 20.6751C20.784 22.4046 18.4857 23.289 15.6523 23.289H13.8097V26.4532H16.2864C21.3388 26.4532 25.0836 24.2913 27.5404 19.9873C28.6698 17.9434 29.2444 15.7619 29.2444 13.4035C29.2246 11.104 28.7094 8.96185 27.6791 6.95723Z" fill="#00AEC1"/>
    <path d="M11.5906 6.99707H8.04395V26.4537H11.5906V6.99707Z" fill="#8CC63F"/>
    <path d="M19.6154 14.9766H0V18.4945H19.6154V14.9766Z" fill="#8CC63F"/>
    <path d="M42.698 23.6629V26.4536H40.3204C38.3589 26.4536 36.8332 26.2178 35.7435 25.7461C33.9405 24.96 32.5337 23.7022 31.543 21.9334C30.7505 20.5183 30.374 19.0444 30.374 17.4721C30.374 15.8605 30.8099 14.3079 31.6619 12.8536C32.6328 11.1831 33.9603 9.96459 35.6444 9.21777C36.8134 8.70679 38.2994 8.43164 40.0826 8.43164H42.7178V11.2027H40.8157C38.6957 11.2027 37.0116 11.7334 35.8029 12.775C34.3962 13.9738 33.7027 15.5461 33.7027 17.4918C33.7027 19.4964 34.4358 21.0686 35.9218 22.2085C37.1304 23.1322 38.7353 23.6039 40.7365 23.6039H42.698V23.6629Z" fill="#00AEC1"/>
    <path d="M47.8892 11.3004V19.6923C47.8892 20.6749 47.9883 21.4021 48.1864 21.8934C48.4043 22.5223 48.8204 22.9743 49.395 23.2298C49.9894 23.4853 50.881 23.6229 52.1095 23.6229H53.6747V26.453H51.9312C50.4451 26.453 49.2761 26.335 48.4638 26.1189C47.1165 25.7651 46.1456 25.0772 45.571 24.0946C44.9766 23.1119 44.6992 21.6772 44.6992 19.7905V3.02637H47.8892V8.5096H53.6946V11.2807H47.8892V11.3004Z" fill="#00AEC1"/>
    <path d="M63.185 7.7041C65.7806 7.7041 67.9799 8.64745 69.8226 10.5145C71.6454 12.3619 72.5568 14.5434 72.5568 17.0983C72.5568 19.6729 71.6454 21.874 69.8027 23.7018C67.9799 25.5295 65.741 26.4336 63.1058 26.4336C60.4508 26.4336 58.192 25.5099 56.3296 23.6821C54.4671 21.8347 53.5557 19.6336 53.5557 17.0787C53.5557 15.8209 53.8132 14.6024 54.3086 13.4232C54.8039 12.244 55.4974 11.2417 56.389 10.3966C58.2515 8.60815 60.53 7.7041 63.185 7.7041ZM62.9869 10.829C61.3622 10.829 59.9356 11.4186 58.727 12.5977C57.4787 13.8162 56.8447 15.2902 56.8447 17.059C56.8447 18.8278 57.4787 20.3214 58.727 21.5399C59.9356 22.7388 61.382 23.3284 63.1058 23.3284C64.8296 23.3284 66.2759 22.7191 67.4648 21.5006C68.6536 20.2821 69.248 18.8278 69.248 17.1376C69.248 15.4081 68.6536 13.9145 67.4449 12.6764C66.2165 11.4579 64.7503 10.829 62.9869 10.829Z" fill="#00AEC1"/>
    <path d="M77.8667 26.4531H74.6768V8.4508H77.8667V11.5953C78.4017 10.593 78.9961 9.84618 79.65 9.35485C80.8388 8.47046 82.2059 8.03809 83.7514 8.03809C84.0287 8.03809 84.4448 8.05774 84.9996 8.1167V11.104C84.5637 11.0843 84.2467 11.0647 84.0486 11.0647C82.1465 11.0647 80.6803 11.615 79.6103 12.6959C78.897 13.4231 78.4017 14.3271 78.1243 15.4277C77.946 16.1352 77.8667 17.0982 77.8667 18.2774V26.4531Z" fill="#00AEC1"/>
</svg>
